<?xml version="1.0" encoding="utf-8"?>
<!-- Generator: Adobe Illustrator 16.0.0, SVG Export Plug-In . SVG Version: 6.00 Build 0)  -->
<!DOCTYPE svg PUBLIC "-//W3C//DTD SVG 1.1//EN" "http://www.w3.org/Graphics/SVG/1.1/DTD/svg11.dtd">
<svg version="1.1" xmlns="http://www.w3.org/2000/svg" xmlns:xlink="http://www.w3.org/1999/xlink" x="0px" y="0px" width="156px"
	 height="143px" viewBox="0 0 156 143" enable-background="new 0 0 156 143" xml:space="preserve">
<g id="fundo">
	<g>
		<path fill-rule="evenodd" clip-rule="evenodd" fill="#9DC9E8" d="M21.1,114.081C9.4,98.789,2.773,83.021,1.219,66.775
			C-0.542,48.534,7.918,32.952,26.6,20.028C45.282,7.105,61.922,0.771,76.522,1.025c14.566,0.254,31.588,8.553,51.065,24.898
			c19.461,16.344,28.227,32.739,26.296,49.186c-1.771,14.94-6.852,27.932-15.244,38.973h-36.305H51.294H21.1z"/>
		<path fill-rule="evenodd" clip-rule="evenodd" fill="#A8CF10" d="M138.64,114.081c-0.849,1.112-1.729,2.205-2.642,3.277
			c-6.514,7.628-16.113,13.501-28.798,17.619c1.167-4.931,0.536-9.948-1.893-15.053l-2.973-5.844H138.64z M21.1,114.081h30.195
			c4.655,7.374,3.613,14.817-3.125,22.332c-8.518-3.517-16.03-9.089-22.535-16.718C24.044,117.831,22.533,115.96,21.1,114.081z"/>
		<path fill-rule="evenodd" clip-rule="evenodd" fill="#E8E8E8" d="M48.169,136.413c6.738-7.515,7.78-14.958,3.125-22.332h51.041
			l2.973,5.844c2.429,5.104,3.06,10.122,1.893,15.053c-6.78,2.198-14.44,3.896-22.979,5.094
			C70.677,141.969,58.66,140.749,48.169,136.413z"/>
	</g>
</g>
<g id="garagem">
	<g>
		<path fill-rule="evenodd" clip-rule="evenodd" fill="#E2A56E" d="M53.454,119.925l-4.853-0.077
			c-0.932,0.103-1.448-1.143-1.55-3.734c-0.458-8.96-0.263-17.572,0.584-25.838l31.249-18.063l31.199,18.013
			c0.812,8.113,0.812,16.718,0,25.812c-0.153,2.338-0.551,3.633-1.194,3.888h-4.599c0.576-7.131,0.576-14.271,0-21.418
			c0.001-2.455-1.612-4.048-4.84-4.776c-3.23-0.729-7.947-1.457-14.151-2.185c-6.202-0.727-14.921-0.625-26.155,0.305
			c-2.1,0.288-3.565,0.864-4.395,1.728c-0.864,0.83-1.363,2.507-1.499,5.03C52.827,106.247,52.895,113.353,53.454,119.925z"/>
		<path fill-rule="evenodd" clip-rule="evenodd" fill="#A97B50" d="M104.291,119.925H53.454c-0.559-6.572-0.627-13.678-0.204-21.316
			c0.136-2.523,0.635-4.2,1.499-5.03c0.83-0.863,2.295-1.439,4.395-1.728c11.234-0.93,19.953-1.031,26.155-0.305
			c6.204,0.728,10.921,1.456,14.151,2.185c3.228,0.729,4.841,2.321,4.84,4.776C104.867,105.654,104.867,112.794,104.291,119.925z"/>
	</g>
</g>
<g id="telhado">
	<path fill-rule="evenodd" clip-rule="evenodd" fill="#785739" d="M52.476,80.659c6.944-3.905,14.875-8.279,23.793-13.122
		c1.744-0.966,3.497-0.982,5.259-0.051c12.692,6.91,21.538,11.872,26.536,14.888c4.996,3.016,7.786,4.875,8.371,5.577
		c0.59,0.698,0.827,1.363,0.712,1.994c-0.118,0.633-0.55,1.319-1.296,2.058c-0.985,0.766-2.01,0.867-3.074,0.306L78.885,72.212
		L45.146,92.206c-0.593,0.38-1.161,0.558-1.702,0.534c-0.542-0.022-1.062-0.331-1.562-0.928c-0.502-0.599-0.841-1.255-1.016-1.969
		c-0.171-0.712-0.014-1.445,0.47-2.197C41.817,86.894,45.531,84.565,52.476,80.659z"/>
</g>
<g id="text">
	<path fill-rule="evenodd" clip-rule="evenodd" fill="#FFFFFF" d="M58.332,35.856c3.59,0,6.258,1.787,8.002,5.36
		c0.661,1.321,1.144,2.719,1.448,4.192c0.322,1.507,0.483,3.091,0.483,4.751c0,5.302-1.592,7.952-4.776,7.952
		c-0.423,0-0.847-0.076-1.271-0.229c-0.44-0.136-0.872-0.331-1.295-0.584c-0.864-0.542-1.542-1.203-2.033-1.981l-1.981,2.566
		c-0.898,0.932-1.812,1.397-2.744,1.397c-0.406,0-0.838-0.118-1.295-0.355c-0.44-0.22-0.915-0.55-1.423-0.991
		c-0.881-0.796-1.524-1.626-1.931-2.49c-0.22-0.881-0.39-1.779-0.508-2.693c-0.102-0.915-0.152-1.82-0.152-2.718l0.355-4.395
		l1.042-3.811c0.389-1.016,0.999-1.981,1.829-2.896c0.965-1.017,1.965-1.779,2.998-2.287C56.113,36.119,57.197,35.856,58.332,35.856
		z M29.318,36.39c1.118-0.88,2.82-1.321,5.106-1.321c1.88,0,3.93,0.626,6.148,1.88c2.744,1.575,4.116,3.515,4.116,5.818
		c0,0.491-0.212,1.109-0.635,1.854c-0.39,0.729-0.991,1.584-1.804,2.566l3.303,3.582c0.373,0.491,0.644,0.974,0.813,1.448
		c0.186,0.423,0.279,0.847,0.279,1.27c0,1.186-0.322,2.278-0.965,3.277c-0.661,0.982-1.634,1.88-2.922,2.693
		c-1.101,0.694-2.202,1.228-3.303,1.601c-1.118,0.338-2.227,0.508-3.328,0.508c-1.643,0-3.074-0.415-4.293-1.245
		c-1.203-0.847-2.193-2.101-2.973-3.76c-0.593-1.203-1.033-2.532-1.321-3.989c-0.254-1.422-0.381-2.972-0.381-4.649l0.076-6.707
		C27.438,38.947,28.133,37.338,29.318,36.39z M79.495,34.992c2.049,0,3.7,0.686,4.954,2.058c0.627,0.678,1.101,1.448,1.423,2.312
		c0.305,0.847,0.457,1.795,0.457,2.846c0,1.49-0.118,2.49-0.355,2.998c-0.271,0.593-0.745,1.22-1.423,1.88
		c-0.712,0.644-1.609,1.304-2.693,1.981l3.658,0.279c1.254,0.254,1.906,1.152,1.957,2.693c0.067,2.523-2.126,4.556-6.58,6.097
		c-1.474,0.491-2.558,0.737-3.252,0.737c-1.88,0-3.565-0.466-5.056-1.397c-1.71-1.084-2.566-2.515-2.566-4.293
		c0-1.186,0.593-2.515,1.778-3.989c1.118-1.389,2.261-2.354,3.43-2.896c-2.473-1.236-3.709-2.735-3.709-4.497
		c0-0.83,0.262-1.643,0.788-2.439c0.525-0.813,1.321-1.601,2.388-2.363C76.54,35.662,78.14,34.992,79.495,34.992z M99.413,37.533
		c3.319,0.288,5.657,2.151,7.012,5.589c0.509,1.288,0.848,2.617,1.017,3.989c0.187,1.406,0.212,2.888,0.076,4.446
		c-0.406,4.895-2.083,7.224-5.03,6.987c-0.406-0.034-0.796-0.127-1.169-0.28c-0.39-0.152-0.762-0.364-1.117-0.635
		c-0.779-0.576-1.364-1.236-1.754-1.981l-2.007,2.21c-0.914,0.813-1.795,1.186-2.642,1.118c-0.39-0.051-0.797-0.203-1.22-0.457
		c-0.39-0.237-0.796-0.584-1.22-1.042c-0.745-0.796-1.271-1.609-1.575-2.439c-0.152-0.847-0.245-1.685-0.279-2.515
		c-0.034-0.881-0.017-1.728,0.051-2.541l0.686-4.065l1.22-3.455c0.457-0.915,1.109-1.762,1.956-2.541
		c0.949-0.881,1.923-1.516,2.922-1.906C97.338,37.609,98.363,37.448,99.413,37.533z M113.895,37.203
		c0.948-0.271,2.075-0.406,3.379-0.406c1.423,0,2.752,0.144,3.988,0.432c1.271,0.305,2.474,0.754,3.608,1.347
		c1.439,0.762,2.515,1.694,3.227,2.794c0.728,1.067,1.092,2.312,1.092,3.735c0,1.033-0.135,1.854-0.406,2.464
		c-0.237,0.44-0.576,0.949-1.017,1.524l-1.702,1.854l2.363,2.312c0.812,0.949,1.22,1.973,1.22,3.074
		c0,0.542-0.119,1.067-0.356,1.575c-0.236,0.508-0.584,0.974-1.041,1.397c-0.915,0.847-1.948,1.271-3.1,1.271
		c-1.067,0-2.101-0.474-3.1-1.423l-2.947-3.049c-0.355,0.339-0.771,0.957-1.245,1.855c-0.44,0.881-0.821,1.482-1.143,1.804
		c-0.491,0.542-1.118,0.813-1.88,0.813c-2.084,0-3.54-2.735-4.37-8.206c-0.39-2.676-0.585-5.471-0.585-8.384
		c0-2.608,0.576-4.463,1.729-5.564C112.184,37.88,112.946,37.474,113.895,37.203z"/>
</g>
</svg>
